<svg id="illustration" xmlns="http://www.w3.org/2000/svg" viewBox="0 0 400 400"><defs><style>.cls-1{fill:#27788c;}.cls-1,.cls-10,.cls-11,.cls-12,.cls-13,.cls-14,.cls-15,.cls-16,.cls-18,.cls-19,.cls-2,.cls-3,.cls-4,.cls-5,.cls-6,.cls-7,.cls-8,.cls-9{fill-rule:evenodd;}.cls-16,.cls-17,.cls-2{fill:#2b2b2b;}.cls-2,.cls-5{opacity:0.1;}.cls-3{fill:#8b6651;}.cls-4{fill:#c3987b;}.cls-6{fill:#165e60;}.cls-7{fill:#474747;}.cls-8{fill:#50a9aa;}.cls-9{fill:#1c7678;}.cls-10{fill:#4f5253;}.cls-11{fill:#72cbcc;}.cls-12{fill:#dfbda5;}.cls-13{fill:#369496;}.cls-14{fill:#3aa0ba;}.cls-15{fill:#e8cab6;}.cls-18{fill:#5ec0d9;}.cls-19,.cls-20{fill:#318fa6;}</style></defs><title>Defender (ISFJ) personality</title><polygon class="cls-1" points="232.27 294.57 249.88 323.36 333.39 255.55 277.57 167.72 249.16 187.5 234.06 195.78 224.66 209.87 220.03 264.44 232.27 294.57"/><polygon class="cls-2" points="286.35 228.52 289.36 263.11 263.8 280.13 217.27 252.78 253.38 239.21 286.35 228.52"/><polygon class="cls-3" points="254.72 250.43 268.91 256.06 272.89 233.53 257.36 239.21 254.72 250.43"/><polygon class="cls-4" points="241.69 224.65 224.41 232.55 228.05 250.78 254.72 250.43 261.53 244.32 264.03 239.21 256.04 231 241.69 224.65"/><polygon class="cls-5" points="305.92 389.26 183.28 379.78 78.92 390.3 161.4 400.11 305.92 389.26"/><polygon class="cls-6" points="221.77 293.15 202.72 328.79 173.55 335.47 173.73 293.2 221.77 293.15"/><polygon class="cls-7" points="202.72 328.79 186.56 358.16 180.73 366.57 166.94 366.57 166.23 349.36 173.55 335.47 202.72 328.79"/><polygon class="cls-8" points="186.56 358.16 196.83 369.06 197.66 379.5 184.48 383.57 167.28 383.57 166.94 366.57 186.56 358.16"/><polygon class="cls-4" points="129.09 224.31 97.63 227.88 99.9 253.53 117.36 254.11 126.4 238.18 129.09 224.31"/><polygon class="cls-8" points="128.06 194.78 126.2 215.15 126.4 238.18 78.58 221.05 92.85 170.14 128.06 194.78"/><polygon class="cls-8" points="218.95 146.34 221.33 172.04 220.42 186.08 224.66 209.87 244.19 189.56 218.95 146.34"/><polygon class="cls-9" points="129.09 293.15 139.66 340.05 153.79 340.91 173.55 335.47 181.86 300.97 153.34 300.59 129.09 293.15"/><polygon class="cls-10" points="173.55 335.47 139.66 340.05 147.29 374.11 158.08 372.28 166.94 366.57 173.55 335.47"/><polygon class="cls-11" points="166.94 366.57 147.29 374.11 144.29 392.43 164.94 387.11 173.55 380.18 166.94 366.57"/><polygon class="cls-12" points="222.37 37.17 241.69 125.33 198.26 138.39 188.73 147.86 188.26 153.72 208.63 168.78 175.01 188.11 135.31 185.43 133.3 159.91 136.7 114.41 119.77 99.97 134.14 79.99 157.72 98.57 163.01 95.66 134.14 68.43 141.41 59.34 222.37 37.17"/><polygon class="cls-13" points="221.33 172.04 209.73 165.45 198.49 169.66 189.25 186.05 182.92 202.53 183.17 219.73 188.73 250.08 202.77 252.78 227.41 241.79 224.66 209.87 221.33 172.04"/><polygon class="cls-9" points="182.92 202.53 168.03 191.05 150.43 182.27 133.19 188.11 123.78 199.16 126.4 238.18 127.33 247.7 165.58 256.5 188.73 250.08 182.92 202.53"/><polygon class="cls-4" points="176.22 68.17 189.66 70.93 205.58 98.57 202.03 74.54 194.67 61.42 176.22 68.17"/><polygon class="cls-4" points="205.58 59.34 220.9 56.22 207.73 81.66 205.58 59.34"/><polygon class="cls-3" points="182.2 107.14 196.74 121.17 226.8 112.38 228.05 101.17 208.43 108.44 182.2 107.14"/><polygon class="cls-4" points="161.67 62.2 185.05 144.77 188.73 146.34 188.26 153.72 176.16 175.52 133.3 159.91 134.81 134.13 131.69 122.03 130.74 112.87 119.77 96.76 137.49 82.87 157.52 101.17 163.01 95.66 150.56 80.88 141.84 62.93 161.67 62.2"/><polygon class="cls-3" points="172.84 145.85 188.26 153.72 198.26 138.39 172.84 145.85"/><polygon class="cls-3" points="135.7 114.41 144.28 108.36 134.81 134.13 131.69 122.03 135.7 114.41"/><polygon class="cls-3" points="222.37 37.17 162.62 65.49 147.11 70.81 143.76 62.86 219.6 26.61 220.81 30.03 222.37 37.17"/><polygon class="cls-3" points="172.84 145.85 181.42 149.74 152.58 162.99 149.74 135.71 172.84 145.85"/><polygon class="cls-10" points="139.72 67 150.56 80.88 167.65 95.97 157.52 101.17 138.38 86.74 123.49 98.31 119.77 105.19 107.35 98.65 98.72 87.08 117.51 62.98 139.72 67"/><polygon class="cls-7" points="220.9 56.22 210.51 50.77 205.58 59.34 220.9 56.22"/><polygon class="cls-7" points="194.67 61.42 181.94 57.52 176.22 68.17 194.67 61.42"/><polygon class="cls-7" points="138.38 86.74 128.95 76.5 98.72 87.08 91.15 76.93 113.8 64.94 139.1 62.23 138.38 86.74"/><polygon class="cls-7" points="123.49 98.31 107.35 98.65 134.81 134.13 135.7 114.41 123.49 98.31"/><polygon class="cls-7" points="227.41 241.79 226.31 273.44 232.27 294.57 224.59 291.71 219.77 296.15 192.78 307.42 115.19 295.28 125.82 241.79 188.73 250.08 227.41 241.79"/><polygon class="cls-10" points="188.73 250.08 192.78 307.42 232.27 294.57 227.41 241.79 188.73 250.08"/><polygon class="cls-7" points="213.89 95.97 205.58 98.57 196.49 106.62 182.2 107.14 196.22 116.49 224.8 108.44 231.29 93.89 221.16 99.87 213.89 95.97"/><polygon class="cls-7" points="215.45 121.43 208.17 142.47 231.03 136.24 215.45 121.43"/><polygon class="cls-3" points="137.28 93.61 129.86 98.61 142.32 103.11 137.28 93.61"/><polygon class="cls-12" points="126.4 238.18 144.66 267.5 141.22 278.6 131.64 277.66 99.9 253.53 126.4 238.18"/><polygon class="cls-14" points="134.52 280.13 115.19 295.28 123.86 306.28 143.99 290.75 140.28 285.25 134.52 280.13"/><polygon class="cls-11" points="198.49 169.66 182.92 202.53 150.43 182.27 179.51 174.64 198.49 169.66"/><polygon class="cls-15" points="205.58 59.34 213.89 95.97 205.58 98.57 194.67 61.42 205.58 59.34"/><polygon class="cls-13" points="145.31 65.58 172.84 145.85 154.14 154.68 134.14 67.43 139.1 62.23 145.31 65.58"/><polygon class="cls-8" points="68.41 81.42 161.67 62.2 156.25 28.78 111.28 39.86 68.41 81.42"/><polygon class="cls-11" points="153.88 38.56 160.63 23.45 194.67 13.62 253.38 12.32 161.67 62.2 153.88 38.56"/><polygon class="cls-8" points="194.67 13.62 140.89 0.11 139.1 28.78 153.88 38.56 194.67 13.62"/><polygon class="cls-13" points="140.89 0.11 111.28 39.86 153.88 38.56 140.89 0.11"/><polygon class="cls-9" points="165.83 138.31 159.34 134.94 155.44 142.73 162.97 145.85 165.83 138.31"/><polygon class="cls-16" points="213.89 95.97 211.5 103.11 205.58 98.57 213.89 95.97"/><circle class="cls-17" cx="217.27" cy="66.49" r="3.63"/><circle class="cls-17" cx="187.91" cy="74.54" r="3.63"/><polygon class="cls-11" points="133.3 159.91 92.85 170.14 123.78 199.16 150.43 182.27 133.3 159.91"/><polygon class="cls-11" points="188.26 153.72 198.49 169.66 221.33 172.04 218.95 146.34 188.26 153.72"/><polygon class="cls-4" points="143.99 266.42 149.51 267.5 162.23 284.35 168.88 293.15 155.47 290.78 140.87 293.15 131.64 277.66 143.99 266.42"/><polygon class="cls-3" points="140.87 293.15 158.69 279.66 168.88 293.15 153.49 297.78 140.87 293.15"/><polygon class="cls-18" points="158.08 256.14 290.48 153.78 312.85 154.02 241.96 214.1 165.97 270.6 158.08 256.14"/><polygon class="cls-14" points="173.73 276.56 307.37 174.48 312.85 154.02 166.23 266.6 167.15 273.77 173.73 276.56"/><polygon class="cls-19" points="151.11 278.03 126.4 238.18 137.3 229.48 166.23 266.6 166.23 276.56 151.11 278.03"/><polygon class="cls-18" points="166.23 266.6 151.11 278.03 179.68 309.04 192.28 300.61 166.23 266.6"/><polygon class="cls-9" points="183.62 392.43 179.16 372.51 144.29 392.43 183.62 392.43"/><polygon class="cls-11" points="224.28 364.86 196.83 369.06 184.48 383.57 206.53 379.5 224.28 364.86"/><polygon class="cls-9" points="184.48 383.57 224.28 364.86 210.5 383.57 184.48 383.57"/><rect class="cls-20" x="261.53" y="219.3" width="10.23" height="50.05"/><polygon class="cls-4" points="286.35 228.52 283.14 256.58 268.91 258.06 268.76 245.53 274.89 227.71 286.35 228.52"/><polygon class="cls-12" points="256.04 231 261.53 244.32 268.61 237.66 268.76 245.53 275.89 245.33 274.89 227.71 256.04 231"/></svg>



